<svg xmlns="http://www.w3.org/2000/svg" viewBox="0 0 82.84 111.26"><defs><style>.cls-1,.cls-2{fill:#fff;}.cls-1{stroke:#ff8357;stroke-miterlimit:10;stroke-width:4px;}.cls-3{fill:#ff8357;}.cls-4{fill:#e25b45;}.cls-5{fill:#297373;}.cls-6{fill:#edda49;}.cls-7{fill:#89d5c9;}</style></defs><title>Task Nav Bar</title><g id="Layer_2" data-name="Layer 2"><g id="Text"><rect class="cls-1" x="2" y="15.68" width="78.84" height="93.58" rx="19.72"/><rect class="cls-2" x="17.47" y="28.85" width="47.91" height="66.77"/><circle class="cls-3" cx="41.42" cy="10.69" r="10.69"/><rect class="cls-4" x="16.41" y="11.52" width="49.94" height="16.13"/><circle class="cls-5" cx="27.98" cy="48.54" r="5.97"/><circle class="cls-5" cx="28.14" cy="71.44" r="5.8"/><path class="cls-6" d="M39.71,47.31H52.5a1.5,1.5,0,0,0,0-3H39.71a1.5,1.5,0,0,0,0,3Z"/><path class="cls-6" d="M44.1,52.85H55.36a1.5,1.5,0,0,0,0-3H44.1a1.5,1.5,0,0,0,0,3Z"/><path class="cls-6" d="M38.18,69.83h18.7a1.5,1.5,0,0,0,0-3H38.18a1.5,1.5,0,0,0,0,3Z"/><path class="cls-6" d="M39.9,74h8a1.5,1.5,0,0,0,0-3h-8a1.5,1.5,0,0,0,0,3Z"/><path class="cls-7" d="M23.9,49.24l1.6,2.12a1.17,1.17,0,0,0,1.54.4,1.14,1.14,0,0,0,.4-1.54l-1.6-2.11a1.16,1.16,0,0,0-1.54-.41,1.13,1.13,0,0,0-.4,1.54Z"/><path class="cls-7" d="M27.24,51.57l4.2-4.2c1-1-.57-2.62-1.59-1.59L25.65,50c-1,1,.57,2.61,1.59,1.59Z"/><path class="cls-7" d="M24.68,72.33l1.61,2.12a1.17,1.17,0,0,0,1.54.4,1.14,1.14,0,0,0,.4-1.54l-1.6-2.11a1.16,1.16,0,0,0-1.54-.4,1.13,1.13,0,0,0-.41,1.53Z"/><path class="cls-7" d="M28,74.66l4.2-4.2a1.13,1.13,0,0,0-1.59-1.59l-4.2,4.2A1.12,1.12,0,0,0,28,74.66Z"/></g></g></svg>